<?xml version="1.0" encoding="iso-8859-1"?>
<!DOCTYPE svg PUBLIC "-//W3C//DTD SVG 1.1//EN" "http://www.w3.org/Graphics/SVG/1.1/DTD/svg11.dtd">
<svg 
 version="1.1" xmlns="http://www.w3.org/2000/svg" xmlns:xlink="http://www.w3.org/1999/xlink" x="0px" y="0px" width="512px"
	 height="512px" viewBox="0 0 512 512" enable-background="new 0 0 512 512" xml:space="preserve"
><g id="b75708d097f2188dff6617b0f00ceea6"><g></g><path display="inline" d="M424.208,373.104c0,10.566-8.596,19.166-19.162,19.166c-10.567,0-19.162-8.6-19.162-19.166
		c0-10.567,8.595-19.167,19.162-19.167C415.612,353.938,424.208,362.537,424.208,373.104z M511.5,362.458v21.292
		c0,5.88-6.354,10.646-14.188,10.646h-9.781c-1.987,7.743-5.065,15.05-9.016,21.771l6.978,6.974
		c5.548,5.543,6.671,13.411,2.512,17.562l-15.054,15.063c-1.692,1.692-4,2.512-6.521,2.512c-3.663,0-7.764-1.734-11.049-5.02
		l-6.895-6.899c-6.829,4.059-14.265,7.203-22.148,9.236v9.776c0,7.844-4.766,14.197-10.646,14.197H394.4
		c-5.881,0-10.646-6.354-10.646-14.197v-9.776c-7.885-2.033-15.319-5.173-22.148-9.236l-6.895,6.899
		c-3.289,3.285-7.394,5.02-11.058,5.02c-2.52,0-4.828-0.819-6.521-2.512l-15.054-15.055c-4.158-4.158-3.036-12.026,2.52-17.569
		l6.97-6.974c-3.95-6.721-7.02-14.027-9.016-21.771h-9.78c-7.835,0-14.189-4.766-14.189-10.646v-21.292
		c0-5.876,6.354-10.646,14.189-10.646h9.78c2.029-7.889,5.174-15.324,9.232-22.152l-6.895-6.891
		c-5.54-5.544-6.662-13.411-2.504-17.57l15.054-15.058c1.692-1.692,4.001-2.508,6.513-2.508c3.663,0,7.764,1.734,11.058,5.02
		l6.978,6.978c6.721-3.95,14.022-7.02,21.766-9.016v-9.776c0-7.841,4.766-14.197,10.646-14.197h21.291
		c5.881,0,10.646,6.356,10.646,14.197v9.776c7.734,1.996,15.045,5.069,21.766,9.021l6.97-6.982c3.289-3.285,7.394-5.02,11.062-5.02
		c2.516,0,4.824,0.815,6.517,2.508l15.054,15.058c4.158,4.159,3.035,12.026-2.512,17.57l-6.895,6.891
		c4.059,6.832,7.202,14.264,9.231,22.152h9.781C505.146,351.813,511.5,356.582,511.5,362.458z M458.275,373.104
		c0-29.355-23.879-53.233-53.229-53.233c-29.359,0-53.229,23.878-53.229,53.233c0,29.354,23.87,53.233,53.229,53.233
		C434.396,426.338,458.275,402.459,458.275,373.104z M287.227,421.672c-13.628-7.914-22.71-21.953-22.71-37.922v-21.292
		c0-16.06,9.187-30.17,22.947-38.055c-4.309-15.303-0.773-31.688,10.833-43.29l8.316-8.319
		c-19.865-8.596-38.786-16.794-41.564-18.004v-19.154c0-1.443,0.445-3.782,1.368-7.024c0.906-3.152,1.917-6.479,3.02-9.978
		c1.26-4.003,2.636-8.301,4.096-12.823c5.281-9.893,9.444-20.967,12.463-33.303c3.011-12.338,4.521-25.315,4.521-39.021
		c0-18.607-1.95-34.394-5.889-47.235c-3.946-12.889-9.314-23.286-16.172-31.239c-6.846-7.937-14.775-13.671-23.824-17.239
		c-9.032-3.589-18.651-5.339-28.881-5.339c-10.417,0-20.127,1.805-29.156,5.477c-9.053,3.639-16.946,9.496-23.683,17.535
		c-6.774,8.021-12.105,18.418-16.052,31.208c-3.909,12.769-5.888,28.382-5.888,46.833c0,14.054,1.567,27.344,4.67,39.853
		c3.102,12.511,7.311,23.67,12.6,33.528c1.452,4.212,2.753,8.145,3.826,11.767c0.927,3.117,1.775,6.169,2.62,9.184
		c0.811,3.013,1.41,5.265,1.763,6.703v18.36c-5.66,2.549-125.151,53.212-128.989,54.476c-7.489,2.758-13.586,6.899-18.343,12.492
		c-4.741,5.568-8.496,11.216-11.236,17.104c-3.285,6.758-5.726,13.881-7.381,21.362v63.497h286.697
		C287.21,421.768,287.214,421.718,287.227,421.672z"></path></g></svg>