<?xml version="1.0" encoding="iso-8859-1"?>
<!DOCTYPE svg PUBLIC "-//W3C//DTD SVG 1.1//EN" "http://www.w3.org/Graphics/SVG/1.1/DTD/svg11.dtd">
<svg 
 version="1.1" xmlns="http://www.w3.org/2000/svg" xmlns:xlink="http://www.w3.org/1999/xlink" x="0px" y="0px" width="512px"
	 height="512px" viewBox="0 0 512 512" enable-background="new 0 0 512 512" xml:space="preserve"
><g id="b75708d097f2188dff6617b0f00d14cf"><g></g><path display="inline" d="M511.5,479.563H298.583v-9.315v-83.836v-55.891h21.292v-26.614c0-49.975,38.13-90.49,85.167-90.49
		s85.166,40.515,85.166,90.49v26.614H511.5v55.891V479.563z M426.333,421.011c0-7.877-4.287-14.738-10.646-18.423v-34.807h-21.292
		v34.807c-6.358,3.685-10.646,10.546-10.646,18.423c0,11.76,9.531,21.291,21.292,21.291
		C416.802,442.302,426.333,432.771,426.333,421.011z M468.917,303.906c0-38.156-28.652-69.198-63.875-69.198
		s-63.875,31.042-63.875,69.198v26.614h127.75V303.906z M264.517,386.411v-55.891c0-14.334,8.85-26.598,21.388-31.63
		c0.433-11.344,2.357-22.293,5.518-32.667c-13.498-5.845-24.322-10.538-26.373-11.43V235.64c0-1.443,0.445-3.782,1.368-7.023
		c0.906-3.152,1.917-6.479,3.02-9.979c1.26-4.002,2.636-8.3,4.096-12.823c5.281-9.893,9.444-20.967,12.463-33.304
		c3.011-12.338,4.521-25.315,4.521-39.021c0-18.607-1.95-34.393-5.889-47.235c-3.946-12.889-9.314-23.286-16.172-31.239
		c-6.846-7.937-14.775-13.671-23.824-17.239c-9.032-3.588-18.651-5.339-28.881-5.339c-10.417,0-20.127,1.805-29.156,5.477
		c-9.053,3.639-16.946,9.496-23.683,17.535c-6.774,8.022-12.105,18.418-16.052,31.208c-3.909,12.769-5.888,28.382-5.888,46.833
		c0,14.054,1.567,27.344,4.67,39.853c3.102,12.511,7.311,23.67,12.6,33.528c1.452,4.213,2.753,8.145,3.826,11.767
		c0.927,3.117,1.775,6.169,2.62,9.184c0.811,3.013,1.41,5.265,1.763,6.704v18.36c-5.66,2.549-125.151,53.212-128.989,54.477
		c-7.489,2.757-13.586,6.898-18.343,12.492c-4.741,5.568-8.496,11.215-11.236,17.104C4.596,343.716,2.155,350.84,0.5,358.32v63.497
		h264.017V386.411z"></path></g></svg>