<?xml version="1.0" encoding="iso-8859-1"?>
<!DOCTYPE svg PUBLIC "-//W3C//DTD SVG 1.1//EN" "http://www.w3.org/Graphics/SVG/1.1/DTD/svg11.dtd">
<svg 
 version="1.1" xmlns="http://www.w3.org/2000/svg" xmlns:xlink="http://www.w3.org/1999/xlink" x="0px" y="0px" width="512px"
	 height="512px" viewBox="0 0 512 512" enable-background="new 0 0 512 512" xml:space="preserve"
><g id="b75708d097f2188dff6617b0f00ce749"><g></g><path display="inline" d="M495.627,451.779c-13.287,19.978-34.458,27.363-34.458,27.363s32.449-33.394,19.674-62.632
		c-15.773-36.075-43.689-37.618-48.351-37.618c-0.438,0-0.67,0.013-0.67,0.013h-52.563v45.844l-80.676-78.846l80.676-78.838v45.836
		h52.563c0,0,0.653-0.05,1.847-0.05c7.318,0,34.939,1.851,56.872,28.24c21.915,26.369,20.738,53.101,20.738,53.101
		S514.585,423.281,495.627,451.779z M274.771,370.268c-6.558-6.412-10.255-15.195-10.255-24.364c0-9.174,3.697-17.957,10.255-24.365
		l44.043-43.04c-23.637-10.222-50.414-21.826-53.766-23.284V236.06c0-1.443,0.445-3.782,1.368-7.023
		c0.906-3.152,1.917-6.479,3.019-9.979c1.261-4.003,2.637-8.301,4.097-12.823c5.281-9.893,9.444-20.967,12.463-33.303
		c3.011-12.339,4.521-25.315,4.521-39.021c0-18.607-1.95-34.394-5.889-47.235c-3.946-12.889-9.314-23.285-16.172-31.238
		c-6.846-7.937-14.775-13.671-23.824-17.239c-9.033-3.589-18.651-5.34-28.881-5.34c-10.417,0-20.128,1.805-29.156,5.477
		c-9.053,3.639-16.946,9.496-23.683,17.535c-6.774,8.021-12.105,18.418-16.052,31.207c-3.909,12.769-5.889,28.382-5.889,46.834
		c0,14.054,1.568,27.344,4.67,39.853c3.102,12.511,7.311,23.671,12.6,33.528c1.451,4.213,2.753,8.145,3.826,11.767
		c0.927,3.117,1.775,6.169,2.62,9.184c0.811,3.014,1.41,5.266,1.763,6.704v18.359c-5.66,2.55-125.151,53.213-128.989,54.478
		c-7.489,2.757-13.586,6.898-18.343,12.492c-4.741,5.568-8.496,11.215-11.236,17.104C4.596,344.136,2.155,351.26,0.5,358.74v63.497
		h327.446L274.771,370.268z"></path></g></svg>